 http://img441.imageshack.us/img441/3935/godblessamerica2011movi.jpg

God.Bless.America.2011.HDRiP.XVID.AC3.HQ.Hive-CM8


Video: 720x304 @bitrate 1700 2pass
Audio: English AC3 5.1 @384
Sample: Yes, included[/b] 
http://www.imdb.com/title/tt1912398/

General
Complete name: God.Bless.America.2011.HDRiP.XVID.AC3.HQ.Hive-CM8.avi
Format: AVI
Format/Info: Audio Video Interleave
File size: 1.53 GiB
Duration: 1h 44mn
Overall bit rate: 2 093 Kbps
Writing application: Nandub v1.0rc2
Writing library: Nandub build 1853/release

Video
ID: 0
Format: MPEG-4 Visual
Format profile: Advanced Simple@L5
Format settings, BVOP: 2
Format settings, QPel: Yes
Format settings, GMC: No warppoints
Format settings, Matrix: Default (H.263)
Muxing mode: Packed bitstream
Codec ID: XVID
Codec ID/Hint: XviD
Duration: 1h 44mn
Bit rate: 1 700 Kbps
Width: 720 pixels
Height: 304 pixels
Display aspect ratio: 2.35:1
Frame rate: 23.976 fps
Color space: YUV
Chroma subsampling: 4:2:0
Bit depth: 8 bits
Scan type: Progressive
Compression mode: Lossy
Bits/(Pixel*Frame): 0.324
Stream size: 1.24 GiB (81%)
Writing library: XviD 1.2.1 (UTC 2008-12-04)

Audio
ID: 1
Format: AC-3
Format/Info: Audio Coding 3
Mode extension: CM (complete main)
Codec ID: 2000
Duration: 1h 44mn
Bit rate mode: Constant
Bit rate: 384 Kbps
Channel(s): 6 channels
Channel positions: Front: L C R, Side: L R, LFE
Sampling rate: 48.0 KHz
Bit depth: 16 bits
Compression mode: Lossy
Delay relative to video: 50ms
Stream size: 287 MiB (18%)
Alignment: Split accross interleaves
Interleave, duration: 42 ms (1.00 video frame)
Interleave, preload duration: 500 ms

[plot]
Fed up with the cruelty and stupidity of American culture, an unlikely duo
teams up to whack reality TV stars, bigots and others they find repugnant

[cast]

Joel Murray ... Frank
Tara Lynne Barr ... Roxy
Mackenzie Brooke Smith ... Ava
Melinda Page Hamilton ... Alison 

[screens] 
http://img543.imageshack.us/img543/4355/42870537.png 
http://img36.imageshack.us/img36/89/gbgb.png 
http://img217.imageshack.us/img217/1289/ggbbgb.png 
http://img839.imageshack.us/img839/3339/ggbbgbgb.png  
http://img401.imageshack.us/img401/8435/ggbbgbggbb.png 
http://img15.imageshack.us/img15/8981/ggbbgbggbgbb.png 
http://img515.imageshack.us/img515/9821/ggbbgbggbgbgbb.png 
http://img853.imageshack.us/img853/6313/ggbbgbggbgbgbgbb.png 
http://img713.imageshack.us/img713/7638/ggbb.png





